<?xml version="1.0" encoding="UTF-8" standalone="no"?>
<svg xmlns:dc="http://purl.org/dc/elements/1.1/"
   xmlns:cc="http://creativecommons.org/ns#"
   xmlns:rdf="http://www.w3.org/1999/02/22-rdf-syntax-ns#"
   xmlns:svg="http://www.w3.org/2000/svg"
   xmlns="http://www.w3.org/2000/svg"
   xmlns:sodipodi="http://sodipodi.sourceforge.net/DTD/sodipodi-0.dtd"
   xmlns:inkscape="http://www.inkscape.org/namespaces/inkscape" version="1.1" id="svg84" width="60" height="60" viewBox="0 0 60 60" sodipodi:docname="tree.svg" inkscape:version="1.0.1 (3bc2e813f5, 2020-09-07, custom)">
   <metadata id="metadata90">
      <rdf:RDF>
         <cc:Work rdf:about="">
            <dc:format>image/svg+xml</dc:format>
            <dc:type rdf:resource="http://purl.org/dc/dcmitype/StillImage" />
            <dc:title></dc:title>
         </cc:Work>
      </rdf:RDF>
   </metadata>
   <defs id="defs88" />
   <sodipodi:namedview pagecolor="#ffffff" bordercolor="#666666" borderopacity="1" objecttolerance="10" gridtolerance="10" guidetolerance="10" inkscape:pageopacity="0" inkscape:pageshadow="2" inkscape:window-width="1920" inkscape:window-height="1029" id="namedview86" showgrid="false" inkscape:zoom="1.8738046" inkscape:cx="248.77518" inkscape:cy="175.39604" inkscape:window-x="0" inkscape:window-y="0" inkscape:window-maximized="1" inkscape:current-layer="g92" />
   <g inkscape:groupmode="layer" inkscape:label="Image" id="g92">
      <path id="rect96" style="fill:none;stroke:#00ff00;stroke-dashoffset:20" d="m 15.72054,4.6356715 7.05323,20.2450905 -21.4097697,4.14977 1.0177,-10.62788 5.4939,-7.8386 z" sodipodi:nodetypes="cccccc" />
      <path id="rect96-3" style="fill:none;stroke:#00ff00;stroke-dashoffset:20" d="M 43.32782,4.3020715 31.01386,19.845192 17.20255,4.3997315 l 6.17847,-3.40376 10.32952,-0.28127 z" sodipodi:nodetypes="cccccc" />
      <path id="rect96-3-6" style="fill:none;stroke:#00ff00;stroke-dashoffset:20" d="m 57.23599,28.753082 -3.03463,10.63219 -15.83173,-14.67403 10.89892,-13.92835 6.25193,6.88207 z" sodipodi:nodetypes="cccccc" />
      <path id="rect96-3-7" style="fill:none;stroke:#00ff00;stroke-dashoffset:20" d="m 50.50582,41.689672 -1.92393,3.2521 -8.40259,5.23627 -7.72536,0.56997 -3.15196,0.35003 1.96881,-3.44827 2.77806,-15.21727 9.9989,4.84327 z" sodipodi:nodetypes="ccccccccc" />
      <path id="rect96-3-5" style="fill:none;stroke:#00ff00;stroke-dashoffset:20" d="m 27.77275,32.194222 -4.86714,19.72405 -7.79453,-2.01424 -7.7945297,-5.45786 -6.11355,-9.09536 -0.33857995,-4.23361 3.59287995,1.14427 z" sodipodi:nodetypes="cccccccc" />
      <path style="fill:none;stroke:#ff8600;stroke-width:1px;stroke-linecap:butt;stroke-linejoin:miter;stroke-opacity:1" d="m 30.15345,2.0217915 0.53556,9.8288905 -0.21796,4.44869 -1.4101,10.60659 -3.14675,6.30548 -1.71408,6.81976 -5.88898,7.59228" id="path177" sodipodi:nodetypes="ccccccc" />
      <path style="fill:none;stroke:#ff8600;stroke-width:1px;stroke-linecap:butt;stroke-linejoin:miter;stroke-opacity:1" d="m 3.0872003,18.891182 4.8411,0.55266 3.0450397,1.54369 2.53075,1.48859 15.55686,4.42984 9.28665,11.5538 2.86669,3.44665 2.94017,4.80585" id="path177-2" sodipodi:nodetypes="cccccccc" />
      <path style="fill:none;stroke:#ff8600;stroke-width:1px;stroke-linecap:butt;stroke-linejoin:miter;stroke-opacity:1" d="m 35.9198,47.684962 2.4278,-9.2252" id="path177-2-9" sodipodi:nodetypes="cc" />
      <path style="fill:none;stroke:#ff8600;stroke-width:1px;stroke-linecap:butt;stroke-linejoin:miter;stroke-opacity:1" d="m 48.09842,43.325302 -6.88413,-1.41889" id="path177-2-9-1" sodipodi:nodetypes="cc" />
      <path style="fill:none;stroke:#ff8600;stroke-width:1px;stroke-linecap:butt;stroke-linejoin:miter;stroke-opacity:1" d="m 55.46987,30.905722 -7.33337,-3.38912 -2.55781,-3.82995" id="path177-2-9-2" sodipodi:nodetypes="ccc" />
      <path style="fill:none;stroke:#ff8600;stroke-width:1px;stroke-linecap:butt;stroke-linejoin:miter;stroke-opacity:1" d="m 48.82361,22.621912 3.45728,-6.85931" id="path177-2-9-2-7" sodipodi:nodetypes="cc" />
      <path style="fill:none;stroke:#ff8600;stroke-width:1px;stroke-linecap:butt;stroke-linejoin:miter;stroke-opacity:1" d="M 30.68901,11.850682 37.21484,4.5130315" id="path177-2-9-2-0" sodipodi:nodetypes="cc" />
      <path style="fill:none;stroke:#ff8600;stroke-width:1px;stroke-linecap:butt;stroke-linejoin:miter;stroke-opacity:1" d="m 30.68901,11.850682 -3.8669,-2.6323205 -3.42609,-7.15073" id="path177-2-9-2-9" sodipodi:nodetypes="ccc" />
      <path style="fill:none;stroke:#ff8600;stroke-width:1px;stroke-linecap:butt;stroke-linejoin:miter;stroke-opacity:1" d="M 13.50409,22.476122 10.83599,9.1999515" id="path177-2-9-2-3" sodipodi:nodetypes="cc" />
      <path style="fill:none;stroke:#ff8600;stroke-width:1px;stroke-linecap:butt;stroke-linejoin:miter;stroke-opacity:1" d="m 7.9283003,19.443842 -1.46525,-6.01295" id="path177-2-9-2-6" sodipodi:nodetypes="cc" />
      <path style="fill:none;stroke:#ff8600;stroke-width:1px;stroke-linecap:butt;stroke-linejoin:miter;stroke-opacity:1" d="M 2.0125403,25.489252 10.97334,20.987532" id="path177-2-9-2-06" sodipodi:nodetypes="cc" />
      <path style="fill:none;stroke:#ff8600;stroke-width:1px;stroke-linecap:butt;stroke-linejoin:miter;stroke-opacity:1" d="M 9.8408803,42.547822 24.20012,40.031202" id="path177-2-9-2-2" sodipodi:nodetypes="cc" />
      <path style="fill:none;stroke:#ff8600;stroke-width:1px;stroke-linecap:butt;stroke-linejoin:miter;stroke-opacity:1" d="m 29.06095,26.905962 5.39354,-1.90354 11.1242,-1.31577 3.24492,-1.06474 4.2577,-0.93348" id="path177-2-9-2-7-6" sodipodi:nodetypes="ccccc" />
   </g>
</svg>
